<svg xmlns="http://www.w3.org/2000/svg" viewBox="0 0 188 40"><defs><style>.a{fill:#fff;}.b{fill:#f25022;}.c{fill:#7fba00;}.d{fill:#00a4ef;}.e{fill:#ffb900;}</style></defs><path class="a" d="M78,8V32H73.83V13.17h0L66.33,32H63.56L55.94,13.17h0V32H52.06V8h6l6.88,17.78h.12L72.33,8Zm3.44,1.83a2.11,2.11,0,0,1,.73-1.66,2.43,2.43,0,0,1,1.72-.67,2.41,2.41,0,0,1,1.78.67,2.35,2.35,0,0,1,.72,1.66,2.12,2.12,0,0,1-.72,1.67,2.52,2.52,0,0,1-1.78.67,2.3,2.3,0,0,1-1.72-.67,2.56,2.56,0,0,1-.73-1.67Zm4.5,4.95V32h-4V14.78ZM98.22,29.06a4.75,4.75,0,0,0,2-.45,8.51,8.51,0,0,0,2-1.11v3.78a7.1,7.1,0,0,1-2.22.83,13.87,13.87,0,0,1-2.72.28A8.18,8.18,0,0,1,91.11,30a8.29,8.29,0,0,1-2.39-6.11,9.78,9.78,0,0,1,2.45-6.83,8.76,8.76,0,0,1,6.89-2.67,10.22,10.22,0,0,1,2.27.28,7.49,7.49,0,0,1,1.84.66v3.89a8.14,8.14,0,0,0-1.89-1,6.23,6.23,0,0,0-2-.39,5.07,5.07,0,0,0-3.89,1.55,5.89,5.89,0,0,0-1.45,4.23,5.55,5.55,0,0,0,1.45,4.05,5.19,5.19,0,0,0,3.83,1.45Zm15.5-14.56a4.39,4.39,0,0,1,.89.06,5,5,0,0,1,.67.16v4.11a2.51,2.51,0,0,0-1-.44,5.39,5.39,0,0,0-1.5-.22,3.13,3.13,0,0,0-2.5,1.27,6.14,6.14,0,0,0-1,3.89V32h-4.06V14.78h4.06V17.5h0A5.18,5.18,0,0,1,111,15.28a5,5,0,0,1,2.72-.78Zm1.78,9.17a9.61,9.61,0,0,1,2.39-6.78,8.83,8.83,0,0,1,6.67-2.5,8.16,8.16,0,0,1,6.27,2.39,9.13,9.13,0,0,1,2.28,6.5,9.37,9.37,0,0,1-2.39,6.66,9.81,9.81,0,0,1-12.89.17A8.94,8.94,0,0,1,115.5,23.67Zm4.22-.17a6.08,6.08,0,0,0,1.22,4.11,4.43,4.43,0,0,0,3.5,1.44,4,4,0,0,0,3.39-1.44A6.48,6.48,0,0,0,129,23.39a6.66,6.66,0,0,0-1.17-4.22,4.62,4.62,0,0,0-6.55-.17,2.28,2.28,0,0,0-.22.22,6.1,6.1,0,0,0-1.34,4.28Zm19.45-4.17a1.77,1.77,0,0,0,.55,1.39,9.36,9.36,0,0,0,2.45,1.22,8.48,8.48,0,0,1,3.38,2.17,4.45,4.45,0,0,1,1,2.94,4.67,4.67,0,0,1-1.88,3.89,7.88,7.88,0,0,1-5.06,1.45,13.79,13.79,0,0,1-2.39-.28,9.63,9.63,0,0,1-2.22-.67v-4a9.47,9.47,0,0,0,2.39,1.22,7.76,7.76,0,0,0,2.33.45,3.75,3.75,0,0,0,2-.39,1.36,1.36,0,0,0,.67-1.28,2,2,0,0,0-.67-1.44,10,10,0,0,0-2.56-1.33A7.72,7.72,0,0,1,136,22.55a4.68,4.68,0,0,1-.94-3,4.74,4.74,0,0,1,1.83-3.83,7.29,7.29,0,0,1,4.78-1.5,9,9,0,0,1,2,.22c.72.17,1.39.33,1.89.5v4a12.38,12.38,0,0,0-1.89-.95,5.89,5.89,0,0,0-2.11-.39,3.08,3.08,0,0,0-1.78.45,1.74,1.74,0,0,0-.61,1.33Zm9.11,4.34a9.57,9.57,0,0,1,2.39-6.78,8.82,8.82,0,0,1,6.66-2.5,8.17,8.17,0,0,1,6.28,2.39,9.16,9.16,0,0,1,2.28,6.5,9.43,9.43,0,0,1-2.39,6.66,8.68,8.68,0,0,1-6.56,2.5,8.53,8.53,0,0,1-6.33-2.33,9.16,9.16,0,0,1-2.33-6.44Zm4.22-.17a6.06,6.06,0,0,0,1.22,4.11,4.46,4.46,0,0,0,3.5,1.45,4,4,0,0,0,3.39-1.45,6.48,6.48,0,0,0,1.17-4.22,6.72,6.72,0,0,0-1.17-4.22,4.62,4.62,0,0,0-6.55-.17l-.23.22A6.36,6.36,0,0,0,152.5,23.5Zm26.89-5.39h-6.06V32h-4.11V18.11h-2.89V14.78h2.89V12.39A6,6,0,0,1,175,6.22h.47c.5,0,.94,0,1.33,0a2.61,2.61,0,0,1,1,.23V10a5.66,5.66,0,0,0-.72-.28,3.56,3.56,0,0,0-1.17-.16,2.48,2.48,0,0,0-1.94.77,3.56,3.56,0,0,0-.67,2.34v2.05h6.06V10.83l4.05-1.22v5.11h4.12v3.34h-4.11v8.05a3.62,3.62,0,0,0,.55,2.22,2.31,2.31,0,0,0,1.83.67,2.67,2.67,0,0,0,.84-.17,2.73,2.73,0,0,0,.83-.39v3.34a4,4,0,0,1-1.28.39,9.66,9.66,0,0,1-1.78.16A5,5,0,0,1,180.61,31a5.88,5.88,0,0,1-1.28-4.11l.06-8.78Z"/><rect class="b" width="19" height="19"/><rect class="c" x="21" width="19" height="19"/><rect class="d" y="21" width="19" height="19"/><rect class="e" x="21" y="21" width="19" height="19"/></svg>