<svg xmlns="http://www.w3.org/2000/svg" viewBox="0 0 147 40"><defs><style>.a{fill:#fff;}</style></defs><path class="a" d="M59.38,22.13v8.22H54.57V7h9.1a10.34,10.34,0,0,1,4.62,1,7.12,7.12,0,0,1,3.07,2.73,7.66,7.66,0,0,1,1.08,4,6.7,6.7,0,0,1-2.35,5.4,9.75,9.75,0,0,1-6.5,2Zm0-3.89h4.3a4.25,4.25,0,0,0,2.91-.9,3.3,3.3,0,0,0,1-2.57,3.83,3.83,0,0,0-1-2.77,3.77,3.77,0,0,0-2.79-1.09h-4.4Zm25.8-.89a11.62,11.62,0,0,0-1.67-.12c-1.75,0-2.9.59-3.44,1.77V30.35H75.44V13h4.37l.13,2.07a4.3,4.3,0,0,1,3.86-2.39,5,5,0,0,1,1.44.21l-.06,4.45ZM95.39,30.67a8.49,8.49,0,0,1-6.21-2.34,8.28,8.28,0,0,1-2.4-6.23v-.45a10.29,10.29,0,0,1,1-4.67,7.39,7.39,0,0,1,2.86-3.18,8,8,0,0,1,4.22-1.11,7.2,7.2,0,0,1,5.6,2.24,9.12,9.12,0,0,1,2,6.36v1.89h-11a4.26,4.26,0,0,0,1.35,2.73,4.17,4.17,0,0,0,2.86,1A5,5,0,0,0,99.87,25l2.28,2.55a7,7,0,0,1-2.82,2.3,9.27,9.27,0,0,1-4,.82Zm-.53-14.22a2.84,2.84,0,0,0-2.24.93A4.82,4.82,0,0,0,91.52,20H98v-.36a3.4,3.4,0,0,0-.83-2.38A3,3,0,0,0,94.86,16.45Zm25.9,5.4a10.44,10.44,0,0,1-1.82,6.41A5.82,5.82,0,0,1,114,30.67a5.41,5.41,0,0,1-4.25-1.82V37h-4.63V13h4.3l.16,1.7a5.43,5.43,0,0,1,4.39-2,5.86,5.86,0,0,1,5,2.37,10.66,10.66,0,0,1,1.78,6.53v.25Zm-4.63-.34a7,7,0,0,0-.86-3.74,2.81,2.81,0,0,0-2.49-1.31,3,3,0,0,0-3,1.67v7.1a3.08,3.08,0,0,0,3,1.71q3.31,0,3.31-5.43Zm12.38,8.84h-4.65V5.74h4.65Zm10.29-6.56L142,13h5l-7,20-.38.91a5.3,5.3,0,0,1-5.13,3.4,7.06,7.06,0,0,1-2.05-.3V33.55l.7,0a3.89,3.89,0,0,0,2-.4,2.61,2.61,0,0,0,1-1.34l.55-1.42L130.59,13h5l3.22,10.79ZM18.43,8.78v18.7a31.93,31.93,0,0,0-6-2.11C9,24.4,5,23.29,2.42,21.05a7.14,7.14,0,0,1-1.83-2.3A6.09,6.09,0,0,1,0,16.07V0H0L.2,0,.31.05C3.46,2.82,7.78,4,11.58,5.11s6.85,1.94,6.85,3.67Zm3.11-.38c.42-1.49,3.36-2.32,6.8-3.29C32.14,4,36.46,2.82,39.61.05l.11,0,.19,0h0V16.07a6.8,6.8,0,0,1-.06.9l-.37-.33A20.3,20.3,0,0,0,33,13.11a24.61,24.61,0,0,0,3.2-1.4.85.85,0,0,0,.32-1.16.86.86,0,0,0-1.11-.34,29.6,29.6,0,0,1-5.15,2l-1.9-.54c-1-.29-2-.56-2.86-.85.84-.26,1.74-.52,2.68-.78a40,40,0,0,0,8-2.9A.85.85,0,0,0,36.49,6a.86.86,0,0,0-1.11-.34A38.66,38.66,0,0,1,27.7,8.42,47,47,0,0,0,23.07,9.9,2.81,2.81,0,0,1,21.54,8.4Zm-.05,22.82V12.52a32.09,32.09,0,0,0,6,2.11c3.45,1,7.37,2.08,10,4.33a7.2,7.2,0,0,1,1.83,2.3,6.3,6.3,0,0,1,.59,2.67V40h0l-.19,0-.11,0c-3.15-2.77-7.47-4-11.27-5.06S21.49,33,21.49,31.22Zm-4.65-1.11a2.76,2.76,0,0,1,1.54,1.5C18,33.1,15,33.92,11.58,34.9,7.78,36,3.46,37.19.31,40L.2,40,0,40H0v-16A6.8,6.8,0,0,1,.06,23l.38.33a20.25,20.25,0,0,0,6.5,3.53,25.22,25.22,0,0,0-3.2,1.4.85.85,0,0,0,.79,1.5,29.6,29.6,0,0,1,5.15-2l1.9.54c1,.29,2,.56,2.86.85-.83.26-1.74.52-2.68.78a40.85,40.85,0,0,0-8,2.89A.84.84,0,0,0,3.43,34a.83.83,0,0,0,1.1.34,40.3,40.3,0,0,1,7.69-2.76,45.94,45.94,0,0,0,4.62-1.47Z"/></svg>