<svg xmlns="http://www.w3.org/2000/svg" viewBox="0 0 122 40"><defs><style>.a{fill:#ea4335;}.b{fill:#fbbc05;}.c{fill:#4285f4;}.d{fill:#34a853;}</style></defs><path class="a" d="M52,21.06a10,10,0,1,1-10-10h0a9.86,9.86,0,0,1,10,9.71h0Zm-4.39,0a5.65,5.65,0,0,0-11.27-.83v0a5.48,5.48,0,0,0,0,.81,5.65,5.65,0,0,0,11.27.82v0a5.34,5.34,0,0,0,0-.8Z"/><path class="b" d="M73.63,21.06a10,10,0,1,1-10.06-10h0a9.87,9.87,0,0,1,10,9.71h0Zm-4.39,0A5.65,5.65,0,0,0,58,20.23v0a5.48,5.48,0,0,0,0,.81,5.65,5.65,0,0,0,11.28.8A5.34,5.34,0,0,0,69.24,21.06Z"/><path class="c" d="M94.36,11.65v18C94.36,37,90,40,84.86,40A9.51,9.51,0,0,1,76,34.11l3.82-1.59a5.52,5.52,0,0,0,5,3.55c3.29,0,5.33-2,5.33-5.86V28.77H90A6.82,6.82,0,0,1,84.77,31a10,10,0,0,1,0-20A6.91,6.91,0,0,1,90,13.29h.16V11.66h4.16ZM90.5,21.08c0-3.52-2.34-6.09-5.33-6.09a5.78,5.78,0,0,0-5.57,6v.11a5.74,5.74,0,0,0,5.44,6h.13C88.16,27.1,90.5,24.57,90.5,21.08Z"/><path class="d" d="M101.24,1.14V30.43H97V1.14Z"/><path class="a" d="M117.92,24.34l3.4,2.27A9.93,9.93,0,0,1,113,31a9.78,9.78,0,0,1-9.92-9.64V21c0-5.94,4.28-10,9.43-10s7.72,4.13,8.55,6.36l.46,1.14-13.37,5.53a5.09,5.09,0,0,0,4.85,3,5.71,5.71,0,0,0,4.92-2.77Zm-10.49-3.6L116.36,17a3.89,3.89,0,0,0-3.71-2.12,5.49,5.49,0,0,0-5.23,5.73h0v.1Z"/><path class="c" d="M15.74,18.45V14.21H30a13.68,13.68,0,0,1,.21,2.56,14,14,0,0,1-3.67,9.92A14.21,14.21,0,0,1,15.74,31,15.73,15.73,0,0,1,0,15.52,15.74,15.74,0,0,1,15.75,0,14.78,14.78,0,0,1,26.38,4.28l-3,3a10.79,10.79,0,0,0-7.65-3A11.13,11.13,0,0,0,4.61,15.37h0v.14a11.13,11.13,0,0,0,11,11.28h.15a10.41,10.41,0,0,0,7.84-3.1,8.79,8.79,0,0,0,2.3-5.25Z"/></svg>