<svg xmlns="http://www.w3.org/2000/svg" viewBox="0 0 64 48"><defs><style>.a{fill:#fff;}.b{fill:#e669a2;}.c{fill:#f3bc87;}.d{fill:#ee9c34;}.e{fill:#e3731c;}.f{fill:#f3be26;}.g{fill:#db4e18;}.h{fill:#e88c14;}.i{fill:#d1390d;}.j{fill:#d85604;}.k{fill:#c22303;}.l{fill:#c14303;}.m{fill:#ad1b02;}</style></defs><path class="a" d="M43.23,31.7c-2,.33-3.1,1.83-3.1,4.48s1.4,4.44,3.55,4.44c1,0,1.9-.33,3.81-1.25v2.15A11.89,11.89,0,0,1,42,42.88a5.87,5.87,0,0,1-4.55-1.68,6.09,6.09,0,0,1-1.77-4.42c0-3.81,2.85-6.38,7-6.38,2.76,0,4.66,1.25,4.66,3.08a2,2,0,0,1-2,2h-.21a3.69,3.69,0,0,1-1.93-.58V31.7ZM33.09,36.78c1.84-2.3,2.49-3.23,2.49-4.36a2,2,0,0,0-2-2h-.05a2.48,2.48,0,0,0-1.74.71v4.68l-3,4V30.69H25.86l-4.78,7.84V30.69H19.44l-4.33,1v1.1l2.36.24v9.6h3.05l4.58-7.44v7.44h3.34ZM6,41.2c.32,0,.46,0,.67,0,2.46,0,3.78-1.52,3.78-4.44,0-2.46-1.08-3.77-3.07-3.77A12.81,12.81,0,0,0,6,33.13V41.2Zm0,5.25,2,.44V48H.2V46.89L2,46.45V33H0V31.86l4.75-1.43H6V32c2.22-1.31,3-1.55,4.13-1.55,2.63,0,4.58,2.41,4.58,5.75,0,3.85-2.6,6.45-6.69,6.45-.67,0-1.35,0-2-.12v3.89Z"/><rect class="b" x="60.83" y="14.72" width="3.02" height="5.89"/><rect class="c" x="52.48" y="2.3" width="2.33" height="3.59"/><rect class="d" x="40.62" width="11.86" height="2.3"/><rect class="e" x="40.62" y="2.3" width="11.86" height="3.59"/><rect class="f" x="54.81" y="5.89" width="6.01" height="8.84"/><rect class="g" x="54.81" y="14.72" width="6.01" height="5.89"/><rect class="h" x="52.48" y="5.89" width="2.33" height="8.84"/><rect class="i" x="52.48" y="14.72" width="2.33" height="5.89"/><path class="j" d="M48,14.72h4.44V5.89H40.62v5.88H48Z"/><rect class="k" x="48.04" y="14.72" width="4.44" height="5.89"/><rect class="l" x="40.62" y="11.77" width="7.42" height="2.95"/><rect class="m" x="40.62" y="14.72" width="7.42" height="5.89"/><rect class="m" x="28.73" y="20.61" width="11.89" height="2.94"/></svg>