<svg xmlns="http://www.w3.org/2000/svg" viewBox="0 0 154 32"><defs><style>.a{fill:#fff;}.b{fill:#008daa;}</style></defs><path class="a" d="M15,27a9.71,9.71,0,0,0,4.86-1.26,10.59,10.59,0,0,0,3.61-3.37L27,25a15.28,15.28,0,0,1-5.19,4.46A15,15,0,0,1,1.18,21.91a15.29,15.29,0,0,1,0-11.77A15,15,0,0,1,21.83,2.55,15.28,15.28,0,0,1,27,7L23.42,9.7a10.56,10.56,0,0,0-3.61-3.36A9.51,9.51,0,0,0,15,5.08a9.47,9.47,0,0,0-4,.86A10.68,10.68,0,0,0,7.64,8.3a11.28,11.28,0,0,0,0,15.45,10.65,10.65,0,0,0,3.29,2.35A9.48,9.48,0,0,0,15,27M33.17,1.64H37.4V30.36H33.17Zm40.14,0h4.23V30.36H73.31Zm11.93,0h18.5v4H96.58V30.36H92.39V5.68H85.23Zm23.52,0h18.5v4H120.1V30.36h-4.19V5.68h-7.16ZM138,5.12,140.26,0l13.07,30.36h-4.59Zm.8,8.21-2.26-5.57L127,30.36h4.59Z"/><path class="b" d="M57.5,26.88,55.25,32,42.18,1.64h4.58Zm-.8-8.21L59,24.24l9.58-22.6H64Z"/></svg>