<svg xmlns="http://www.w3.org/2000/svg" xmlns:xlink="http://www.w3.org/1999/xlink" viewBox="0 0 640 1002"><defs><style>.icon-arrow-right,.line-middle,.line-top{fill:none;stroke-linecap:round;stroke-linejoin:round;}.line-middle,.line-top{stroke-width:2px;}.line-top{stroke:url(#linear-gradient);}.line-middle{stroke:#27324d;}.end-octagon-base{fill:#a557ff;}.icon-arrow-right{stroke:#fff;stroke-width:1.5px;}.start-octagon{fill:#55cebe;}</style><linearGradient id="linear-gradient" x1="313" y1="967.88" x2="313" y2="14.607" gradientUnits="userSpaceOnUse"><stop offset="0" stop-color="#a557ff"/><stop offset="0.25" stop-color="#63cc5c"/><stop offset="0.75" stop-color="#f0a52d"/><stop offset="1" stop-color="#55cebe"/></linearGradient></defs><path class="line-top" d="M625,15.607s-624,92-624,224,624,132,624,264S1,660.816,1,767.607,315.307,888.614,315.307,966.88"/><path class="line-middle" d="M625,15.607s-624,132-624,264,624,132,624,264S1,700.816,1,807.607,315.307,888.614,315.307,966.88"/><path class="line-top" d="M625,15.607s-624,172-624,304,624,132,624,264S1,740.816,1,847.607,315.307,888.614,315.307,966.88"/><g id="end-octagon"><path class="end-octagon-base" d="M350.568,978.416V944.325a5.911,5.911,0,0,0-2.954-5.118L318.09,922.162a5.912,5.912,0,0,0-5.909,0l-29.524,17.045a5.909,5.909,0,0,0-2.954,5.118v34.091a5.906,5.906,0,0,0,2.954,5.118l29.524,17.045a5.907,5.907,0,0,0,5.909,0l29.524-17.045A5.908,5.908,0,0,0,350.568,978.416Z"/><path class="icon-arrow-right" d="M315.135,950.058v22.626m-8-8,8,8m8-8-8,8"/></g><path class="start-octagon" d="M639.1,22.819V9.182a2.366,2.366,0,0,0-1.182-2.047L626.107.317a2.361,2.361,0,0,0-2.364,0l-11.81,6.818a2.361,2.361,0,0,0-1.18,2.047V22.818a2.364,2.364,0,0,0,1.182,2.047l11.81,6.818a2.365,2.365,0,0,0,2.364,0l11.81-6.818A2.366,2.366,0,0,0,639.1,22.819Z"/></svg>