<svg xmlns="http://www.w3.org/2000/svg" xmlns:xlink="http://www.w3.org/1999/xlink" viewBox="0 0 400 400"><defs>
	<style>.cls-1{isolation:isolate;}.cls-2{fill:url(#radial-gradient);}.cls-3{fill:url(#radial-gradient-2);}.cls-4{fill:url(#radial-gradient-3);}.cls-5{fill:url(#radial-gradient-4);}.cls-6{fill:url(#radial-gradient-5);}.cls-7{fill:url(#radial-gradient-6);}.cls-8{fill:url(#radial-gradient-7);}.cls-9{fill:url(#radial-gradient-8);}.cls-10{fill:url(#radial-gradient-9);}.cls-11{fill:url(#radial-gradient-10);}.cls-12{opacity:0.2;fill:url(#radial-gradient-11);}.cls-13,.cls-14{opacity:0.27;}.cls-13{fill:url(#radial-gradient-12);}.cls-14{fill:url(#radial-gradient-13);}.cls-15{fill:url(#radial-gradient-14);}.cls-16{fill:url(#linear-gradient);}.cls-17{fill:url(#linear-gradient-2);}.cls-18{fill:url(#radial-gradient-15);}.cls-19,.cls-21,.cls-26{mix-blend-mode:hard-light;}.cls-19{fill:url(#radial-gradient-16);}.cls-20{opacity:0.72;fill:url(#radial-gradient-17);}.cls-21{fill:url(#radial-gradient-18);}.cls-22{fill:url(#linear-gradient-3);}.cls-23{fill:url(#linear-gradient-4);}.cls-24{fill:url(#linear-gradient-5);}.cls-25{fill:url(#New_Gradient_Swatch_7);}.cls-26{fill:url(#radial-gradient-19);}.cls-27{fill:#0a0039;}.cls-28{fill:url(#linear-gradient-6);}.cls-29{fill:url(#linear-gradient-7);}.cls-30{fill:url(#New_Gradient_Swatch_8);}.cls-31{mix-blend-mode:overlay;fill:url(#linear-gradient-8);}.cls-32{fill:url(#linear-gradient-9);}.cls-33,.cls-38{opacity:0.82;}.cls-33{fill:url(#linear-gradient-10);}.cls-34{fill:url(#linear-gradient-11);}.cls-35,.cls-46,.cls-47,.cls-48,.cls-49{mix-blend-mode:soft-light;}.cls-36{fill:#fff;}.cls-37{fill:url(#linear-gradient-12);}.cls-38{fill:url(#linear-gradient-13);}.cls-39{fill:url(#linear-gradient-14);}.cls-40{fill:url(#linear-gradient-15);}.cls-41{opacity:0.35;fill:url(#linear-gradient-16);}.cls-42{fill:none;stroke-miterlimit:10;stroke-width:4px;stroke:url(#linear-gradient-17);}.cls-43{opacity:0.8;}.cls-44{fill:#07142d;}.cls-45{fill:#e40047;}.cls-46{opacity:0.88;fill:url(#radial-gradient-20);}.cls-47{opacity:0.52;fill:url(#radial-gradient-21);}.cls-48,.cls-49{opacity:0.6;}.cls-48{fill:url(#radial-gradient-22);}.cls-49{fill:url(#radial-gradient-23);}

#rocket {
	animation: levitation 4000ms cubic-bezier(0.45, 0.05, 0.55, 0.95) infinite alternate;
	transform: translateY(0) rotate(3deg);
	transform-origin: center;
	}

@keyframes levitation {
	to {
		transform: translateY(-64px) rotate(-3deg);
	}
}

#fire,
#rocket-fire-glow {
	animation: fire 200ms linear infinite alternate;
    transform-origin: 200px 350px;
}

#rocket-fire-glow {
    transform-origin: 200px 270px;
}

@keyframes fire {
	to {
		transform: scaleY(1.2);
	}
}

#fire-glow {
	animation: fire-glow 2000ms linear infinite alternate;
	transform-origin: center;
	-webkit-perspective: 1000;
	-webkit-backface-visibility: hidden;
}

@keyframes fire-glow {
	50% {
		transform: scale(1.1);
		opacity: 0.7;
	}
}
<!-- 
#stars *:nth-of-type(even),
#stars *:nth-of-type(odd) {
	animation: blinker 2000ms linear infinite;
}

#stars *:nth-of-type(odd) {
	animation-duration: 2500ms;
}

#rocket-glow *:nth-of-type(even) {
	animation: blinker 4000ms linear infinite;
}

@keyframes blinker {
  50% {
    opacity: 0;
  }
} -->

	</style>
	<radialGradient id="radial-gradient" cx="-1118.29" cy="456.78" r="0.1" gradientTransform="matrix(1920, 0, 0, -1920, 2147319.4, 877220.01)" gradientUnits="userSpaceOnUse"><stop offset="0" stop-color="#001049"/><stop offset="1" stop-color="#1f2533" stop-opacity="0"/></radialGradient><radialGradient id="radial-gradient-2" cx="165.08" cy="58.94" r="1.48" gradientUnits="userSpaceOnUse"><stop offset="0" stop-color="#fff"/><stop offset="0.02" stop-color="#f8f8fb" stop-opacity="0.97"/><stop offset="0.24" stop-color="#b5aed3" stop-opacity="0.68"/><stop offset="0.44" stop-color="#7c70b2" stop-opacity="0.44"/><stop offset="0.62" stop-color="#504098" stop-opacity="0.25"/><stop offset="0.78" stop-color="#301d86" stop-opacity="0.11"/><stop offset="0.91" stop-color="#1d087a" stop-opacity="0.03"/><stop offset="1" stop-color="#160076" stop-opacity="0"/></radialGradient><radialGradient id="radial-gradient-3" cx="236.06" cy="102.36" r="4.47" xlink:href="#radial-gradient-2"/><radialGradient id="radial-gradient-4" cx="281.88" cy="87.99" r="1.55" xlink:href="#radial-gradient-2"/><radialGradient id="radial-gradient-5" cx="104.15" cy="99.01" r="2.12" xlink:href="#radial-gradient-2"/><radialGradient id="radial-gradient-6" cx="149.81" cy="167.99" r="3.89" xlink:href="#radial-gradient-2"/><radialGradient id="radial-gradient-7" cx="166.23" cy="109.04" r="3.65" xlink:href="#radial-gradient-2"/><radialGradient id="radial-gradient-8" cx="262.62" cy="168.48" r="2.42" xlink:href="#radial-gradient-2"/><radialGradient id="radial-gradient-9" cx="134.72" cy="200.5" r="1.53" xlink:href="#radial-gradient-2"/><radialGradient id="radial-gradient-10" cx="225.14" cy="62.8" r="2.27" xlink:href="#radial-gradient-2"/><radialGradient id="radial-gradient-11" cx="199.47" cy="195" r="103.85" gradientUnits="userSpaceOnUse"><stop offset="0" stop-color="#fff"/><stop offset="0.02" stop-color="#fffcf8" stop-opacity="0.97"/><stop offset="0.24" stop-color="#ffd8ae" stop-opacity="0.68"/><stop offset="0.44" stop-color="#ffbb70" stop-opacity="0.44"/><stop offset="0.62" stop-color="#ffa340" stop-opacity="0.25"/><stop offset="0.78" stop-color="#ff931d" stop-opacity="0.11"/><stop offset="0.91" stop-color="#ff8908" stop-opacity="0.03"/><stop offset="1" stop-color="#ff8500" stop-opacity="0"/></radialGradient><radialGradient id="radial-gradient-12" cx="196.95" cy="170.15" r="119.62" gradientUnits="userSpaceOnUse"><stop offset="0" stop-color="#6959ff"/><stop offset="0.17" stop-color="#6958ff" stop-opacity="0.78"/><stop offset="0.4" stop-color="#6857ff" stop-opacity="0.5"/><stop offset="0.6" stop-color="#6855ff" stop-opacity="0.29"/><stop offset="0.78" stop-color="#6755ff" stop-opacity="0.13"/><stop offset="0.92" stop-color="#6754ff" stop-opacity="0.04"/><stop offset="1" stop-color="#6754ff" stop-opacity="0"/></radialGradient><radialGradient id="radial-gradient-13" cx="200.56" cy="180.36" r="98.8" gradientUnits="userSpaceOnUse"><stop offset="0" stop-color="#fc59ff"/><stop offset="0.17" stop-color="#fd58ff" stop-opacity="0.78"/><stop offset="0.4" stop-color="#fd57ff" stop-opacity="0.5"/><stop offset="0.6" stop-color="#fe55fe" stop-opacity="0.29"/><stop offset="0.78" stop-color="#ff55fe" stop-opacity="0.13"/><stop offset="0.92" stop-color="#ff54fe" stop-opacity="0.04"/><stop offset="1" stop-color="#ff54fe" stop-opacity="0"/></radialGradient><radialGradient id="radial-gradient-14" cx="199.88" cy="274.86" r="48.64" gradientTransform="translate(-170.69 -234.38) scale(1.85 1.85)" gradientUnits="userSpaceOnUse"><stop offset="0" stop-color="#ff8659"/><stop offset="0.17" stop-color="#ff8558" stop-opacity="0.78"/><stop offset="0.4" stop-color="#ff8557" stop-opacity="0.5"/><stop offset="0.6" stop-color="#ff8455" stop-opacity="0.29"/><stop offset="0.78" stop-color="#ff8355" stop-opacity="0.13"/><stop offset="0.92" stop-color="#ff8354" stop-opacity="0.04"/><stop offset="1" stop-color="#ff8354" stop-opacity="0"/></radialGradient><linearGradient id="linear-gradient" x1="161.71" y1="248.16" x2="161.71" y2="213.16" gradientUnits="userSpaceOnUse"><stop offset="0" stop-color="#660027"/><stop offset="1" stop-color="#81193b"/></linearGradient><linearGradient id="linear-gradient-2" x1="237.71" y1="248.16" x2="237.71" y2="213.16" xlink:href="#linear-gradient"/><radialGradient id="radial-gradient-15" cx="200" cy="350.87" r="69.51" gradientTransform="translate(0.28 -110.2)" gradientUnits="userSpaceOnUse"><stop offset="0" stop-color="#ff59b9"/><stop offset="0.17" stop-color="#ff58b7" stop-opacity="0.78"/><stop offset="0.4" stop-color="#ff57b6" stop-opacity="0.5"/><stop offset="0.6" stop-color="#ff55b4" stop-opacity="0.29"/><stop offset="0.78" stop-color="#ff55b3" stop-opacity="0.13"/><stop offset="0.92" stop-color="#ff54b2" stop-opacity="0.04"/><stop offset="1" stop-color="#ff54b2" stop-opacity="0"/></radialGradient><radialGradient id="radial-gradient-16" cx="200.37" cy="290.46" r="27.15" xlink:href="#radial-gradient-11"/><radialGradient id="radial-gradient-17" cx="200.37" cy="268.58" r="47" xlink:href="#radial-gradient-11"/><radialGradient id="radial-gradient-18" cx="199.71" cy="284.3" r="21.88" gradientUnits="userSpaceOnUse"><stop offset="0" stop-color="#fff462"/><stop offset="0.02" stop-color="#fff15f" stop-opacity="0.97"/><stop offset="0.24" stop-color="#ffd143" stop-opacity="0.68"/><stop offset="0.44" stop-color="#ffb62b" stop-opacity="0.44"/><stop offset="0.62" stop-color="#ffa118" stop-opacity="0.25"/><stop offset="0.78" stop-color="#ff920b" stop-opacity="0.11"/><stop offset="0.91" stop-color="#ff8803" stop-opacity="0.03"/><stop offset="1" stop-color="#ff8500" stop-opacity="0"/></radialGradient><linearGradient id="linear-gradient-3" x1="199.71" y1="267.59" x2="199.71" y2="276.16" xlink:href="#linear-gradient"/><linearGradient id="linear-gradient-4" x1="199.71" y1="257.43" x2="199.71" y2="270.16" gradientUnits="userSpaceOnUse"><stop offset="0" stop-color="#600025"/><stop offset="1" stop-color="#7b1838"/></linearGradient><linearGradient id="linear-gradient-5" x1="199.71" y1="259.64" x2="199.71" y2="270.16" gradientUnits="userSpaceOnUse"><stop offset="0" stop-color="#a90040"/><stop offset="1" stop-color="#c42659"/></linearGradient><linearGradient id="New_Gradient_Swatch_7" x1="199.71" y1="262.16" x2="199.71" y2="108.22" gradientUnits="userSpaceOnUse"><stop offset="0" stop-color="#0b004e"/><stop offset="1" stop-color="#3821ab"/></linearGradient><radialGradient id="radial-gradient-19" cx="200" cy="269.81" r="22.03" gradientUnits="userSpaceOnUse"><stop offset="0" stop-color="#fff462"/><stop offset="0.02" stop-color="#fff160" stop-opacity="0.98"/><stop offset="0.39" stop-color="#ffc437" stop-opacity="0.56"/><stop offset="0.69" stop-color="#ffa21a" stop-opacity="0.26"/><stop offset="0.9" stop-color="#ff8d07" stop-opacity="0.07"/><stop offset="1" stop-color="#ff8500" stop-opacity="0"/></radialGradient><linearGradient id="linear-gradient-6" x1="-1901.33" y1="197.14" x2="-1882.04" y2="197.14" gradientTransform="matrix(-0.41, -0.91, -0.91, 0.41, -380.42, -1607.37)" xlink:href="#linear-gradient-5"/><linearGradient id="linear-gradient-7" x1="-1985.83" y1="232.59" x2="-1985.83" y2="209.71" gradientTransform="matrix(-0.4, -0.83, -0.87, 0.38, -370.82, -1536.18)" gradientUnits="userSpaceOnUse"><stop offset="0" stop-color="#45001a"/><stop offset="1" stop-color="#60132c"/></linearGradient><linearGradient id="New_Gradient_Swatch_8" x1="220.71" y1="207.5" x2="220.71" y2="186.69" gradientTransform="translate(309.19 -85.28) rotate(65.63)" gradientUnits="userSpaceOnUse"><stop offset="0" stop-color="#003d84"/><stop offset="1" stop-color="#2b75e1"/></linearGradient><linearGradient id="linear-gradient-8" x1="162.64" y1="185.19" x2="234.6" y2="185.19" gradientUnits="userSpaceOnUse"><stop offset="0" stop-color="#fff" stop-opacity="0"/><stop offset="0.06" stop-color="#fff" stop-opacity="0.12"/><stop offset="0.19" stop-color="#fff" stop-opacity="0.42"/><stop offset="0.27" stop-color="#fff" stop-opacity="0.6"/><stop offset="0.3" stop-color="#fff" stop-opacity="0.44"/><stop offset="0.34" stop-color="#fff" stop-opacity="0.28"/><stop offset="0.39" stop-color="#fff" stop-opacity="0.16"/><stop offset="0.43" stop-color="#fff" stop-opacity="0.07"/><stop offset="0.47" stop-color="#fff" stop-opacity="0.02"/><stop offset="0.5" stop-color="#fff" stop-opacity="0"/><stop offset="0.53" stop-color="#fff" stop-opacity="0.04"/><stop offset="0.59" stop-color="#fff" stop-opacity="0.14"/><stop offset="0.66" stop-color="#fff" stop-opacity="0.3"/><stop offset="0.74" stop-color="#fff" stop-opacity="0.53"/><stop offset="0.83" stop-color="#fff" stop-opacity="0.8"/><stop offset="0.84" stop-color="#fff" stop-opacity="0.73"/><stop offset="0.92" stop-color="#fff" stop-opacity="0.34"/><stop offset="0.97" stop-color="#fff" stop-opacity="0.1"/><stop offset="1" stop-color="#fff" stop-opacity="0"/></linearGradient><linearGradient id="linear-gradient-9" x1="168.21" y1="286.69" x2="168.21" y2="228.16" xlink:href="#linear-gradient"/><linearGradient id="linear-gradient-10" x1="168.21" y1="286.69" x2="168.21" y2="228.16" gradientUnits="userSpaceOnUse"><stop offset="0" stop-color="#fff6fc" stop-opacity="0"/><stop offset="1" stop-color="#f0b9e1"/></linearGradient><linearGradient id="linear-gradient-11" x1="169.71" y1="286.69" x2="169.71" y2="228.16" xlink:href="#linear-gradient-5"/><linearGradient id="linear-gradient-12" x1="230.71" y1="286.69" x2="230.71" y2="228.16" xlink:href="#linear-gradient"/><linearGradient id="linear-gradient-13" x1="230.71" y1="286.69" x2="230.71" y2="228.16" xlink:href="#linear-gradient-10"/><linearGradient id="linear-gradient-14" x1="229.21" y1="286.69" x2="229.21" y2="228.16" xlink:href="#linear-gradient-5"/><linearGradient id="linear-gradient-15" x1="199.71" y1="146.16" x2="199.71" y2="108.22" xlink:href="#linear-gradient-5"/><linearGradient id="linear-gradient-16" x1="180.35" y1="121.83" x2="204.3" y2="130.54" gradientUnits="userSpaceOnUse"><stop offset="0" stop-color="#fff6fc" stop-opacity="0"/><stop offset="0.5" stop-color="#f0b9e1"/><stop offset="1" stop-color="#fbe7f6" stop-opacity="0"/></linearGradient><linearGradient id="linear-gradient-17" x1="199.71" y1="148.16" x2="199.71" y2="138.25" gradientUnits="userSpaceOnUse"><stop offset="0" stop-color="#0e0059"/><stop offset="1" stop-color="#25156b"/></linearGradient><radialGradient id="radial-gradient-20" cx="1118.43" cy="176.9" r="32" gradientTransform="translate(-375.65 -12.57) scale(0.53 1.06)" gradientUnits="userSpaceOnUse"><stop offset="0" stop-color="#ff597e"/><stop offset="0.17" stop-color="#ff587c" stop-opacity="0.78"/><stop offset="0.4" stop-color="#ff577a" stop-opacity="0.5"/><stop offset="0.6" stop-color="#ff5578" stop-opacity="0.29"/><stop offset="0.78" stop-color="#f57" stop-opacity="0.13"/><stop offset="0.92" stop-color="#ff5476" stop-opacity="0.04"/><stop offset="1" stop-color="#ff5476" stop-opacity="0"/></radialGradient><radialGradient id="radial-gradient-21" cx="420.6" cy="185.65" r="32" gradientTransform="translate(-151.94 35.38) scale(0.8 0.8)" xlink:href="#radial-gradient-20"/><radialGradient id="radial-gradient-22" cx="1092.59" cy="216.21" r="32" gradientTransform="translate(-375.65 -7.16) scale(0.53 1.06)" xlink:href="#radial-gradient-20"/><radialGradient id="radial-gradient-23" cx="1038.38" cy="289.34" r="23.11" gradientTransform="matrix(0.53, 0.03, -0.02, 1.07, -364.76, -113.2)" xlink:href="#radial-gradient-20"/></defs><g class="cls-1"><circle id="glow" class="cls-2" cx="200" cy="200" r="200"/><g id="stars"><circle class="cls-3" cx="165.08" cy="58.94" r="1.48"/><circle class="cls-4" cx="236.06" cy="102.36" r="4.47"/><circle class="cls-5" cx="281.88" cy="87.99" r="1.55"/><circle class="cls-6" cx="104.15" cy="99.01" r="2.12"/><circle class="cls-7" cx="149.81" cy="167.99" r="3.89"/><circle class="cls-8" cx="166.23" cy="109.04" r="3.65"/><circle class="cls-9" cx="262.62" cy="168.48" r="2.42"/><circle class="cls-10" cx="134.72" cy="200.5" r="1.53"/><circle class="cls-11" cx="225.14" cy="62.8" r="2.27"/></g><g id="rocket-glow"><ellipse class="cls-12" cx="200" cy="194.53" rx="102.6" ry="142.94"/><ellipse class="cls-13" cx="200" cy="181.44" rx="119" ry="152.63"/><ellipse class="cls-14" cx="200" cy="181.44" rx="99.26" ry="127.31"/></g><g id="rocket"><circle id="fire-glow" class="cls-15" cx="200" cy="275.05" r="93.95"/><g id="rocket-wings-back"><path class="cls-16" d="M164.71,213.16l-9.13,15.53a6.26,6.26,0,0,0-.87,3.18v16.29l14-9Q166.71,226.17,164.71,213.16Z"/><path class="cls-17" d="M234.71,213.16l9.13,15.53a6.26,6.26,0,0,1,.87,3.18v16.29l-14-9Q232.71,226.17,234.71,213.16Z"/></g><circle class="cls-18" cx="199.85" cy="239.92" r="71"/><g id="fire"><ellipse class="cls-19" cx="199.71" cy="281.12" rx="27.79" ry="52.95"/><ellipse class="cls-20" cx="200" cy="256.5" rx="48.04" ry="80.97"/><ellipse class="cls-21" cx="199.71" cy="274.1" rx="22.55" ry="42.96"/></g><path id="rocket-bottom-cap" class="cls-22" d="M189.26,267.59V271c0,2.84,4.68,5.14,10.45,5.14s10.46-2.3,10.46-5.14v-3.43Z"/><g id="rocket-prebottom-cap"><path class="cls-23" d="M178.94,257.43v3.23c0,5.25,9.3,9.5,20.77,9.5s20.78-4.25,20.78-9.5v-3.23Z"/><path class="cls-24" d="M220.48,259.64v1c0,5.25-9.3,9.5-20.77,9.5s-20.77-4.25-20.77-9.5v-1a49.17,49.17,0,0,0,6.77,2.52,50,50,0,0,0,28,0A49.17,49.17,0,0,0,220.48,259.64Z"/></g><path id="rocket-body" class="cls-25" d="M237.71,186.16a89,89,0,0,0-3-24c-2.65-9.52-6.38-15.76-12-25-4.57-7.51-12.12-17.38-21.48-28.24a2,2,0,0,0-3,0c-9.36,10.86-16.9,20.73-21.48,28.24-5.62,9.24-9.35,15.48-12,25a89.43,89.43,0,0,0-3,24,120.11,120.11,0,0,0,2,22c1.51,9.34,3.47,22.58,5.5,39.75a9.41,9.41,0,0,0,4.41,6.91,50.05,50.05,0,0,0,52.18,0,9.41,9.41,0,0,0,4.41-6.91c2-17.17,4-30.41,5.5-39.75A120.11,120.11,0,0,0,237.71,186.16Z"/><ellipse id="rocket-fire-glow" class="cls-26" cx="200" cy="269.94" rx="22.55" ry="42.96"/><g id="window"><ellipse class="cls-27" cx="220.53" cy="197.95" rx="13.51" ry="9.23" transform="translate(-50.78 317.16) rotate(-65.63)"/><ellipse class="cls-28" cx="220.49" cy="197.14" rx="12.79" ry="8.86" transform="translate(-50.06 316.65) rotate(-65.63)"/><ellipse class="cls-29" cx="220.76" cy="197.08" rx="11.52" ry="7.24" transform="translate(-49.85 316.86) rotate(-65.63)"/><ellipse class="cls-30" cx="220.71" cy="197.09" rx="11" ry="6.77" transform="translate(-49.89 316.83) rotate(-65.63)"/></g><path id="rocket-reflection" class="cls-31" d="M237.71,186.16a89,89,0,0,0-3-24c-2.65-9.52-6.38-15.76-12-25-4.57-7.51-12.12-17.38-21.48-28.24a2,2,0,0,0-3,0c-9.36,10.86-16.9,20.73-21.48,28.24-5.62,9.24-9.35,15.48-12,25a89.43,89.43,0,0,0-3,24,120.11,120.11,0,0,0,2,22c1.51,9.34,3.47,22.58,5.5,39.75a9.41,9.41,0,0,0,4.41,6.91,50.05,50.05,0,0,0,52.18,0,9.41,9.41,0,0,0,4.41-6.91c2-17.17,4-30.41,5.5-39.75A120.11,120.11,0,0,0,237.71,186.16Z"/><g id="rocket-wigns-front"><path class="cls-32" d="M174.71,228.16a28.4,28.4,0,0,0-6,6c-3.74,5.12-4.44,9.84-6,16a128.31,128.31,0,0,1-4.55,14.35,22.25,22.25,0,0,0-1.45,7.91v13.74l3.16.53q9.93-29.26,19.84-58.53Z"/><path class="cls-33" d="M174.71,228.16a28.4,28.4,0,0,0-6,6c-3.74,5.12-4.44,9.84-6,16a128.31,128.31,0,0,1-4.55,14.35,22.25,22.25,0,0,0-1.45,7.91v13.74l3.16.53q9.93-29.26,19.84-58.53Z"/><path class="cls-34" d="M179.71,228.16a36.39,36.39,0,0,0-8,9c-3.08,5-3.75,8.86-6,16-1,3.11-2.39,7.24-4.36,12.11a22.3,22.3,0,0,0-1.64,8.38l.16,13q9.93-15.76,19.84-31.53Z"/><g class="cls-35"><path class="cls-36" d="M179.71,228.16a50.73,50.73,0,0,0-4.91,5.37,39.76,39.76,0,0,0-3.89,6.06,47.8,47.8,0,0,0-2.72,6.69L167,249.74c-.42,1.14-.83,2.3-1.3,3.42.54-2.38,1.11-4.75,1.74-7.11a35,35,0,0,1,2.57-6.92,30,30,0,0,1,4.2-6.09,33.71,33.71,0,0,1,2.59-2.62A30.07,30.07,0,0,1,179.71,228.16Z"/></g><path class="cls-37" d="M224.21,228.16a28.4,28.4,0,0,1,6,6c3.75,5.12,4.44,9.84,6,16a128.31,128.31,0,0,0,4.55,14.35,22.25,22.25,0,0,1,1.45,7.91v13.74l-3.16.53-19.84-58.53Z"/><path class="cls-38" d="M224.21,228.16a28.4,28.4,0,0,1,6,6c3.75,5.12,4.44,9.84,6,16a128.31,128.31,0,0,0,4.55,14.35,22.25,22.25,0,0,1,1.45,7.91v13.74l-3.16.53-19.84-58.53Z"/><path class="cls-39" d="M219.21,228.16a36.39,36.39,0,0,1,8,9c3.08,5,3.75,8.86,6,16,1,3.11,2.39,7.24,4.36,12.11a22.3,22.3,0,0,1,1.64,8.38l-.16,13-19.84-31.53Z"/><g class="cls-35"><path class="cls-36" d="M219.21,228.16a30.07,30.07,0,0,1,2.9,2.26,35.72,35.72,0,0,1,2.6,2.62,30.37,30.37,0,0,1,4.19,6.09,35,35,0,0,1,2.57,6.92c.63,2.36,1.2,4.73,1.74,7.11-.47-1.12-.87-2.28-1.3-3.42l-1.18-3.46a46.62,46.62,0,0,0-2.72-6.69,39,39,0,0,0-3.89-6.06A50.73,50.73,0,0,0,219.21,228.16Z"/></g></g><g id="rocket-hat"><path class="cls-40" d="M224.42,140A52.49,52.49,0,0,1,175,140l1.71-2.82c4.57-7.52,12.12-17.39,21.48-28.25a2,2,0,0,1,3,0c9.36,10.86,16.91,20.73,21.48,28.25Z"/><path class="cls-41" d="M224.42,140A52.49,52.49,0,0,1,175,140l1.71-2.82c4.57-7.52,12.12-17.39,21.48-28.25a2,2,0,0,1,3,0c9.36,10.86,16.91,20.73,21.48,28.25Z"/><path class="cls-42" d="M224.42,140A52.49,52.49,0,0,1,175,140"/></g><g id="evercon-logo" class="cls-43"><path class="cls-44" d="M181.43,197.61l-.91-.09,0,2.56-.89-.08,0-2.18-.95-.09,0,2.18-.95-.09-.05-2.48-.91-.09.07,3.85,4.61.44-.07-3.93m-3.22-5.15,0,1.4,1.89,1.06-1.85.72,0,1.4,3.1-1.43,0-1.13-3.16-2m1.25-1.42a1,1,0,0,1-.54-.93c0-.46.19-.8.5-.79l0,1.72m.17-3c-1-.09-1.56.83-1.54,2v.11a2.2,2.2,0,0,0,1.68,2.23h0c.95.09,1.62-.75,1.6-2a3.21,3.21,0,0,0-.58-1.83l-.63.6a2,2,0,0,1,.34,1.06.84.84,0,0,1-.47.9l-.06-3-.35-.05M178.06,184a1.68,1.68,0,0,0-.08.6,1.47,1.47,0,0,0,.77,1.29l-.67-.06,0,1.27,3.13.3,0-1.29-1-.1c-.93-.09-1.27-.54-1.28-1a1.52,1.52,0,0,1,.11-.57l-.95-.4m2.39-4L180,181a1.17,1.17,0,0,1,.31.8v.07c0,.48-.32.83-.69.8h-.09a1.08,1.08,0,0,1-.39-1.74l-.5-1a2,2,0,0,0-.7,1.7c0,1.18.68,2.31,1.67,2.4h0c.93,0,1.63-.9,1.57-2.1a2.56,2.56,0,0,0-.76-1.84m-.92-1.88a.92.92,0,0,1-.7-.92c0-.49.26-.88.64-.87h0a.94.94,0,0,1,.72,1c0,.47-.27.84-.64.83h0m-.14-3.11h-.06c-.94-.06-1.65.9-1.6,2.12a2.29,2.29,0,0,0,1.75,2.3h.09c.91,0,1.61-.87,1.56-2.05v-.08a2.29,2.29,0,0,0-1.74-2.3m1.52-4.75-1.68-.16c-.95-.09-1.51.39-1.49,1.47a1.42,1.42,0,0,0,.66,1.22l-.57-.05,0,1.29,3.13.3,0-1.29-1.63-.16a.77.77,0,0,1-.68-.84.58.58,0,0,1,.66-.65l1.62.16,0-1.29m.32,35.32-4.08-.39a.61.61,0,0,0-.61.4L174.59,210a1.18,1.18,0,0,0,0,.92l2.13,4.78a.81.81,0,0,0,.62.52l4.07.39a.64.64,0,0,0,.61-.41l1.94-4.39a1.1,1.1,0,0,0,0-.92l-2.11-4.77a.85.85,0,0,0-.62-.52"/><path class="cls-36" d="M180.93,197.61l-.91-.09,0,2.56-.89-.08,0-2.18-.95-.09,0,2.18-.95-.09-.05-2.48-.91-.09.07,3.85,4.61.44-.07-3.93m-3.22-5.15,0,1.4,1.89,1.06-1.85.72,0,1.4,3.1-1.43,0-1.13-3.16-2M179,191a1,1,0,0,1-.54-.93c0-.46.19-.8.5-.79l0,1.72m.17-3c-1-.09-1.56.83-1.54,2v.11a2.2,2.2,0,0,0,1.68,2.23h0c.95.09,1.62-.75,1.6-2a3.21,3.21,0,0,0-.58-1.83l-.63.6a2,2,0,0,1,.34,1.06.84.84,0,0,1-.47.9l-.06-3-.35-.05M177.56,184a1.68,1.68,0,0,0-.08.6,1.47,1.47,0,0,0,.77,1.29l-.67-.06,0,1.27,3.13.3,0-1.29-1-.1c-.93-.09-1.27-.54-1.28-1a1.52,1.52,0,0,1,.11-.57l-.95-.4m2.39-4-.47.95a1.17,1.17,0,0,1,.31.8v.07c0,.48-.32.83-.69.8H179a1.08,1.08,0,0,1-.39-1.74l-.5-1a2,2,0,0,0-.7,1.7c0,1.18.68,2.31,1.67,2.4h0c.93,0,1.63-.9,1.57-2.1A2.56,2.56,0,0,0,180,180m-.92-1.88a.92.92,0,0,1-.7-.92c0-.49.26-.88.64-.87h0a.94.94,0,0,1,.72,1c0,.47-.27.84-.64.83h0m-.14-3.11h-.06c-.94-.06-1.65.9-1.6,2.12a2.29,2.29,0,0,0,1.75,2.3h.09c.91,0,1.61-.87,1.56-2.05v-.08a2.29,2.29,0,0,0-1.74-2.3m1.52-4.75-1.68-.16c-.95-.09-1.51.39-1.49,1.47a1.42,1.42,0,0,0,.66,1.22l-.57-.05,0,1.29,3.13.3,0-1.29-1.63-.16a.77.77,0,0,1-.68-.84.58.58,0,0,1,.66-.65l1.62.16,0-1.29m-1.14,43.2a.66.66,0,0,1-.28-.11l-2.69-2.11a.9.9,0,0,1-.25-1,.51.51,0,0,1,.44-.34l1.24,0,.4,1.57a1,1,0,0,0,.77.79h.79l.09.35a.71.71,0,0,1-.34.88.5.5,0,0,1-.17,0M178.9,212a.72.72,0,0,1-.55-.57l-.55-2.15a.89.89,0,0,1,0-.56.47.47,0,0,1,.48-.33.45.45,0,0,1,.27.11l2.7,2.1a.84.84,0,0,1,.3.61c0,.4-.18.74-.49.74L179,212h0m1.83-6.35-4.08-.39a.61.61,0,0,0-.61.4L174.09,210a1.18,1.18,0,0,0,0,.92l2.13,4.78a.81.81,0,0,0,.62.52l4.07.39a.64.64,0,0,0,.61-.41l1.94-4.39a1.1,1.1,0,0,0,0-.92l-2.11-4.77a.85.85,0,0,0-.62-.52"/><path class="cls-45" d="M177.73,209.88l-1.24,0a.51.51,0,0,0-.44.34.9.9,0,0,0,.25,1l2.69,2.11a.66.66,0,0,0,.28.11.5.5,0,0,0,.17,0,.71.71,0,0,0,.34-.88l-.09-.35h-.79a1,1,0,0,1-.77-.79l-.4-1.57m.58-1.54a.47.47,0,0,0-.48.33.89.89,0,0,0,0,.56l.55,2.15a.72.72,0,0,0,.55.57h0l2.14,0c.31,0,.53-.34.49-.74a.84.84,0,0,0-.3-.61l-2.7-2.1a.45.45,0,0,0-.27-.11"/></g><g id="rocket-refl-spots"><ellipse class="cls-46" cx="218.95" cy="175.52" rx="17.01" ry="30.93"/><ellipse class="cls-47" cx="184.72" cy="183.99" rx="25.61" ry="30.93"/><ellipse class="cls-48" cx="205.21" cy="222.73" rx="17.01" ry="33.5"/><ellipse class="cls-49" cx="181.72" cy="232.9" rx="12.29" ry="24.19" transform="translate(-14.87 12.41) rotate(-3.76)"/></g></g></g></svg>